<svg xmlns="http://www.w3.org/2000/svg" width="80" height="80" viewBox="0 0 80 80">
  <g id="Group_197" data-name="Group 197" transform="translate(-1368 -739)">
    <g id="Ellipse_276" data-name="Ellipse 276" transform="translate(1368 739)" fill="#0f81b8" stroke="#707070" stroke-width="1">
      <circle cx="40" cy="40" r="40" stroke="none"/>
      <circle cx="40" cy="40" r="39.5" fill="none"/>
    </g>
    <path id="phone-solid" d="M28.9,1.431,22.806.025a1.415,1.415,0,0,0-1.611.814L18.382,7.4a1.4,1.4,0,0,0,.4,1.641l3.551,2.906A21.715,21.715,0,0,1,11.955,22.331L9.049,18.78a1.4,1.4,0,0,0-1.641-.4L.846,21.189a1.423,1.423,0,0,0-.82,1.617L1.432,28.9A1.406,1.406,0,0,0,2.8,29.989,27.184,27.184,0,0,0,29.99,2.8,1.4,1.4,0,0,0,28.9,1.431Z" transform="translate(1393.01 764.011)" fill="#f2f2f2"/>
  </g>
</svg>
