<svg xmlns="http://www.w3.org/2000/svg" width="30" height="25" viewBox="0 0 30 25">
  <path id="icons8-telegram-app" d="M29.78,4a3.654,3.654,0,0,0-1.077.238h0c-.329.121-1.893.732-4.269,1.656L15.908,9.22C9.795,11.609,3.785,13.959,3.785,13.959l.072-.025a3.827,3.827,0,0,0-.848.4,2.277,2.277,0,0,0-.676.606,1.686,1.686,0,0,0-.32,1.188,2.155,2.155,0,0,0,1.032,1.493A3.532,3.532,0,0,0,3.812,18h.009l5.635,1.761c.252.753,1.718,5.22,2.069,6.249a3.724,3.724,0,0,0,.663,1.292,1.59,1.59,0,0,0,.437.376,1.339,1.339,0,0,0,.212.092.2.2,0,0,0,.072.021l-.059-.013a.433.433,0,0,1,.045.021.955.955,0,0,0,.135.025,2.023,2.023,0,0,0,1.609-.264l.041-.029,3.327-2.811,5.577,3.969.126.05a3.155,3.155,0,0,0,2.962-.255,2.813,2.813,0,0,0,.87-1.067l.041-.1,4.31-20.482a2.738,2.738,0,0,0,.018-1.439,1.956,1.956,0,0,0-.9-1.121A2.294,2.294,0,0,0,29.78,4Zm-.117,2.2a.58.58,0,0,1-.023.188v.013L25.371,26.662a.462.462,0,0,1-.135.155c-.09.067-.162.109-.536-.029l-6.821-4.852-4.121,3.484.866-5.128,11.144-9.637c.46-.4.307-.481.307-.481.032-.485-.694-.142-.694-.142L11.327,18.108l0-.021-6.735-2.1v0s-.014,0-.018,0a.326.326,0,0,0,.036-.013l.036-.017.036-.013L16.8,11.194c3.061-1.2,6.145-2.4,8.516-3.329s4.125-1.6,4.224-1.64S29.595,6.192,29.662,6.192Z" transform="translate(-2 -3.994)" fill="#5a8ed5"/>
</svg>
