<svg xmlns="http://www.w3.org/2000/svg" width="30" height="30" viewBox="0 0 30 30">
  <path id="viber-brands" d="M39.806,2.959c-.785-.685-3.96-2.871-11.041-2.9,0,0-8.347-.475-12.412,3.064-2.261,2.144-3.058,5.29-3.145,9.186s-.192,11.2,7.229,13.176h.006l-.006,3.023s-.049,1.224.8,1.471c1.026.3,1.631-.627,2.613-1.629.538-.551,1.279-1.359,1.841-1.974a30.215,30.215,0,0,0,9.422-.656c1.026-.316,6.827-1.019,7.766-8.319.976-7.534-.47-12.291-3.077-14.442Zm.859,13.891c-.8,6.093-5.5,6.48-6.364,6.743a27.95,27.95,0,0,1-8.106.656s-3.213,3.673-4.214,4.628c-.327.311-.686.281-.68-.334,0-.4.025-5.021.025-5.021h0c-6.29-1.652-5.919-7.868-5.851-11.12s.717-5.917,2.632-7.71C21.55,1.735,28.636,2.174,28.636,2.174c5.987.023,8.854,1.734,9.521,2.308,2.206,1.793,3.33,6.081,2.508,12.368Zm-8.588-4.734a.4.4,0,0,1-.8.035,1.859,1.859,0,0,0-2.014-1.986.379.379,0,1,1,.043-.756A2.615,2.615,0,0,1,32.077,12.116Zm1.254.662c.062-2.484-1.575-4.429-4.683-4.646a.379.379,0,1,1,.056-.756c3.583.246,5.493,2.584,5.425,5.419a.4.4,0,0,1-.8-.018Zm2.9.785a.4.4,0,0,1-.8.006c-.037-4.775-3.392-7.376-7.463-7.405a.378.378,0,1,1,0-.756C32.528,5.437,36.192,8.419,36.235,13.563Zm-.7,5.747v.012c-.667,1.113-1.915,2.343-3.2,1.951l-.012-.018a24.174,24.174,0,0,1-6.314-3.31,15.759,15.759,0,0,1-2.62-2.484,18.963,18.963,0,0,1-1.9-2.73,17.067,17.067,0,0,1-1.606-3.263c-.414-1.219.877-2.4,2.057-3.035h.012a1.167,1.167,0,0,1,1.477.228s.766.867,1.094,1.295c.309.4.723,1.037.939,1.394a1.18,1.18,0,0,1-.229,1.558l-.741.562a1,1,0,0,0-.327.82,7.485,7.485,0,0,0,5.208,4.939,1.125,1.125,0,0,0,.865-.311l.593-.7A1.34,1.34,0,0,1,32.473,16a16.019,16.019,0,0,1,2.83,1.927,1.011,1.011,0,0,1,.235,1.383Z" transform="translate(-13.19 -0.038)" fill="#c019d3"/>
</svg>
