<svg xmlns="http://www.w3.org/2000/svg" width="30" height="30" viewBox="0 0 30 30">
  <path id="whatsapp" d="M25.879,4.36a14.951,14.951,0,0,0-25.5,10.5A14.784,14.784,0,0,0,2.369,22.3L.25,30l7.919-2.067a14.978,14.978,0,0,0,7.138,1.809h.006A14.923,14.923,0,0,0,30.25,14.877,14.739,14.739,0,0,0,25.879,4.36ZM15.313,27.232h-.005a12.445,12.445,0,0,1-6.319-1.722l-.453-.268-4.7,1.227,1.254-4.56-.3-.467A12.352,12.352,0,0,1,15.318,2.511a12.361,12.361,0,1,1,0,24.721Zm6.81-9.254c-.373-.186-2.208-1.084-2.55-1.208s-.591-.186-.84.186-.964,1.208-1.182,1.456-.435.279-.809.093a10.2,10.2,0,0,1-3-1.844,11.212,11.212,0,0,1-2.076-2.573c-.217-.372,0-.554.164-.758a10.509,10.509,0,0,0,.933-1.271.68.68,0,0,0-.031-.651c-.093-.186-.84-2.014-1.15-2.758-.3-.724-.611-.626-.84-.638S10.273,8,10.024,8a1.374,1.374,0,0,0-1,.465,4.158,4.158,0,0,0-1.306,3.1,7.208,7.208,0,0,0,1.524,3.842,16.605,16.605,0,0,0,6.376,5.609,21.428,21.428,0,0,0,2.128.783,5.14,5.14,0,0,0,2.351.147,3.845,3.845,0,0,0,2.519-1.766,3.09,3.09,0,0,0,.217-1.766C22.745,18.257,22.5,18.164,22.123,17.978Zm0,0" transform="translate(-0.25)" fill="#5ad563" fill-rule="evenodd"/>
</svg>
